<?xml version="1.0" encoding="utf-8"?>
<!-- Generator: Adobe Illustrator 26.1.0, SVG Export Plug-In . SVG Version: 6.00 Build 0)  -->
<svg version="1.1" id="Ebene_1" xmlns="http://www.w3.org/2000/svg" xmlns:xlink="http://www.w3.org/1999/xlink" x="0px" y="0px"
	 viewBox="0 0 841.9 239.8" style="enable-background:new 0 0 841.9 239.8;" xml:space="preserve">
<style type="text/css">
	.st0{fill:#507D70;}
	.st1{fill:#C0A777;}
	.st2{fill:#86A8A4;}
	.st3{fill:#E3D09B;}
</style>
<g>
	<path class="st0" d="M177.4,63.3h16.2l22.3,62.5h0.6l21.2-62.5h16.2v113.3h-16.2v-70.9h-0.8l-17,51.1h-8.6l-17-51.1h-0.8v70.9
		h-16.2V63.3z"/>
	<path class="st0" d="M273.3,63.3h48.1v15.4h-31.9V112h28.2v14.6h-28.2v34.6h32.4v15.4h-48.5V63.3z"/>
	<path class="st0" d="M387.1,63.3v15.4H367v97.9h-16.2V78.6h-20.1V63.3H387.1z"/>
	<path class="st0" d="M448.6,63.3v12.5l-34,86.3h33.2v14.6h-50.2v-14.2l33.2-84.5h-30.9V63.3H448.6z"/>
	<path class="st0" d="M465.6,63.3h48.1v15.4h-31.9V112h28.2v14.6h-28.2v34.6h32.4v15.4h-48.5V63.3z"/>
	<path class="st0" d="M545.7,63.3l27,71.2V63.3h16.2v113.3h-16.2l-27-71.2v71.2h-16.2V63.3H545.7z"/>
	<path class="st0" d="M624.5,63.3V112h21.8V63.3h16.2v113.3h-16.2v-50h-21.8v50h-16.2V63.3H624.5z"/>
	<path class="st0" d="M681.3,93c0-8.6,0.6-16.8,8.4-24.1c4.9-4.5,11.5-7.3,19.9-7.3s15,2.8,19.9,7.3c7.8,7.3,8.4,15.5,8.4,24.1v53.7
		c0,8.6-0.6,16.8-8.4,24.1c-4.9,4.5-11.5,7.3-19.9,7.3s-15-2.8-19.9-7.3c-7.8-7.3-8.4-15.5-8.4-24.1V93z M721.8,90.6
		c0-3.4-0.3-6.8-3.4-9.9c-1.8-1.8-4.7-3.2-8.7-3.2c-4,0-7,1.5-8.7,3.2c-3.1,3.1-3.4,6.5-3.4,9.9v58.6c0,3.4,0.3,6.8,3.4,9.9
		c1.8,1.8,4.7,3.2,8.7,3.2c4,0,7-1.5,8.7-3.2c3.1-3.1,3.4-6.5,3.4-9.9V90.6z"/>
	<path class="st0" d="M756.7,63.3h49.2v15.4h-33v34h29V128h-29v48.5h-16.2V63.3z"/>
</g>
<g>
	<polygon class="st1" points="39.2,61.7 72,94.4 114.9,94.4 147.7,61.7 	"/>
	<polygon class="st2" points="68.8,140.6 68.8,97.6 36,64.9 36,173.3 	"/>
	<polygon class="st0" points="114.9,143.8 72,143.8 39.2,176.5 147.7,176.5 	"/>
	<polygon class="st3" points="118.1,97.6 118.1,140.6 150.9,173.3 150.9,64.9 	"/>
</g>
</svg>
